<svg width="191" height="97" viewBox="0 0 191 97" fill="none" xmlns="http://www.w3.org/2000/svg">
<rect x="93.25" y="2.29321" width="2.91727" height="93.4748" rx="1.45863" fill="#E8B558" stroke="black" stroke-width="0.5"/>
<path d="M142.5 4.04327C123.021 0.13125 105.885 2.51419 95.9995 5.5431C95.9995 16.9857 94.7938 41.3317 96.0003 42.5432C97.5083 44.0577 122.5 40.3851 143.5 46.0432C159.988 50.4856 179.627 45.9039 187 43.0432L189 3.04323C183.5 5.5431 160.5 7.65836 142.5 4.04327Z" stroke="black"/>
<path d="M142.196 5.03892C162.611 9.4138 181.238 6.86178 188 5.03892L185.943 42.0374C177.717 44.5154 157.451 48.4459 142.196 44.3445C126.94 40.243 104.181 41.0975 94.7086 42.0374V7.08964C102.031 4.5832 121.78 0.664041 142.196 5.03892Z" fill="white" stroke="#E8B558" stroke-width="2"/>
<path d="M106.661 26.7486L109.238 30.1668L107.216 34.3179L107.01 32.3712L105.026 34.5499L105.23 31.8216L101.937 30.9399L104.972 29.3882L104.497 27.2239L106.867 28.6953L106.661 26.7486Z" fill="#E8B558" stroke="#E8B558"/>
<path d="M110.708 29.9221L113.146 30.1348L112.786 28.6296L110.708 29.9221Z" fill="#E8B558" stroke="#E8B558"/>
<path d="M173.248 27.1339L113.617 30.1585L111.411 20.4698L118.117 17.4344L116.796 15.5413L122.454 15.9894L120.864 13.6199L126.058 14.5815L124.48 12.4564L168.461 14.8809L175.394 21.1446L175.506 23.3441L173.248 27.1339Z" fill="#E8B558" stroke="#E8B558"/>
<circle cx="118.923" cy="33.3195" r="4.89402" transform="rotate(-2.90373 118.923 33.3195)" fill="#E8B558"/>
<circle cx="118.922" cy="33.3193" r="2.93641" transform="rotate(-2.90373 118.922 33.3193)" fill="white"/>
<circle cx="119.007" cy="33.315" r="1.46821" transform="rotate(-2.90373 119.007 33.315)" fill="#E8B558"/>
<circle cx="168.289" cy="30.8154" r="4.89402" transform="rotate(-2.90373 168.289 30.8154)" fill="#E8B558"/>
<circle cx="168.289" cy="30.8154" r="2.93641" transform="rotate(-2.90373 168.289 30.8154)" fill="white"/>
<circle cx="168.374" cy="30.8111" r="1.46821" transform="rotate(-2.90373 168.374 30.8111)" fill="#E8B558"/>
<path d="M174.843 22.9317C173.451 23.9174 171.641 25.1385 169.048 22.857C169.668 24.9724 173.381 26.7949 174.843 22.9317Z" fill="#FFDBDB"/>
<circle cx="171.787" cy="20.8373" r="1.46821" transform="rotate(-2.90373 171.787 20.8373)" fill="white"/>
<circle cx="172.275" cy="20.8124" r="0.489402" transform="rotate(-2.90373 172.275 20.8124)" fill="#E8B558"/>
<path d="M121.44 26.7029L120.726 21.8673L119.737 22.0134C119.61 22.0268 119.523 22.0046 119.477 21.9467C119.418 21.8798 119.375 21.7514 119.347 21.5615C119.302 21.2608 119.37 21.0972 119.549 21.0707L122.43 20.6453C122.736 20.6002 122.901 20.6594 122.925 20.8229C122.995 21.2925 122.903 21.546 122.649 21.5834L121.762 21.7063L122.07 23.3024L122.554 26.5223C122.569 26.6225 122.576 26.6889 122.575 26.7213C122.565 26.7983 122.467 26.8504 122.283 26.8777C121.75 26.9564 121.469 26.8981 121.44 26.7029ZM124.966 22.6646C125.355 22.3053 125.618 22.1155 125.755 22.0952C125.898 22.0742 126.028 22.0819 126.147 22.1183C126.271 22.1539 126.363 22.1942 126.424 22.2392L126.505 22.2999C126.476 22.6492 126.446 22.8692 126.417 22.9599C126.387 23.0505 126.335 23.1013 126.261 23.1122C126.193 23.1223 126.099 23.1066 125.979 23.0649C125.86 23.0232 125.755 23.009 125.666 23.0222C125.576 23.0355 125.409 23.1437 125.164 23.347L125.594 26.2595C125.599 26.2911 125.596 26.313 125.587 26.3251C125.572 26.3704 125.478 26.406 125.304 26.4317C125.13 26.4574 124.964 26.4683 124.807 26.4645C124.656 26.46 124.578 26.4418 124.573 26.4102L123.993 22.4847C123.981 22.4003 124.093 22.3406 124.331 22.3055C124.568 22.2705 124.712 22.2924 124.761 22.3714L124.763 22.3872L124.966 22.6646ZM129.55 25.4246C129.313 25.7131 129.085 25.8733 128.869 25.9053C128.658 25.9364 128.484 25.9459 128.348 25.9337C128.212 25.9268 128.084 25.8837 127.965 25.8043C127.844 25.7196 127.75 25.5881 127.68 25.4096C127.611 25.2312 127.553 24.989 127.508 24.683C127.445 24.2556 127.61 23.932 128.004 23.7122L129.092 23.2523C129.036 22.9101 128.969 22.6936 128.891 22.6027C128.813 22.5118 128.668 22.4819 128.457 22.5131C128.246 22.5442 128.069 22.6054 127.926 22.6966L127.666 22.8483L127.658 22.8494C127.614 22.8828 127.569 22.8679 127.522 22.8048C127.397 22.6183 127.327 22.4697 127.31 22.3589C127.293 22.2428 127.292 22.1783 127.306 22.1655C127.325 22.1465 127.334 22.1344 127.333 22.1291C127.571 21.9161 127.899 21.7788 128.316 21.7172C128.738 21.6549 129.07 21.6624 129.314 21.7397C129.557 21.817 129.75 21.996 129.894 22.2766C130.043 22.5513 130.159 22.9761 130.244 23.5512L130.52 25.5321C130.525 25.5638 130.523 25.5856 130.514 25.5977C130.499 25.6431 130.402 25.679 130.223 25.7055C129.895 25.7538 129.726 25.7357 129.713 25.6513L129.55 25.4246ZM128.389 24.5691C128.445 24.949 128.585 25.1331 128.81 25.1215C128.963 25.0989 129.07 25.0562 129.131 24.9933C129.264 24.8712 129.282 24.4857 129.186 23.8367C128.918 23.9142 128.713 24.0226 128.571 24.1621C128.429 24.2962 128.369 24.4319 128.389 24.5691ZM130.488 21.5016C130.478 21.433 130.568 21.3846 130.758 21.3566C130.953 21.3278 131.135 21.3145 131.302 21.3167C131.475 21.3182 131.566 21.3343 131.576 21.3652L132.717 24.2211L132.898 21.1701C132.906 21.0825 132.985 21.0279 133.132 21.0061C133.28 20.9843 133.405 20.9712 133.507 20.967C133.753 20.9575 133.875 20.9773 133.871 21.0264L133.866 21.0434L133.454 25.099C133.445 25.1866 133.348 25.244 133.164 25.2712C132.984 25.2977 132.79 25.313 132.58 25.317C132.376 25.3202 132.266 25.3067 132.251 25.2766L130.502 21.54L130.5 21.5241C130.493 21.5144 130.489 21.5068 130.488 21.5016ZM136.834 24.7294C136.269 24.8127 135.853 24.7178 135.587 24.4445C135.325 24.1704 135.136 23.6376 135.019 22.8462C134.935 22.2764 134.921 21.8363 134.978 21.5261C135.034 21.2105 135.154 20.9852 135.339 20.8501C135.528 20.7089 135.821 20.6091 136.217 20.5507C136.612 20.4923 136.919 20.5036 137.136 20.5848C137.358 20.6653 137.538 20.8488 137.678 21.1355C137.817 21.4223 137.928 21.8426 138.01 22.3966C138.014 22.4283 138.019 22.4599 138.024 22.4916C138.028 22.5232 137.969 22.5616 137.846 22.6067C137.729 22.651 137.583 22.686 137.409 22.7117L136.19 22.8916C136.292 23.5074 136.389 23.8516 136.48 23.9244C136.534 23.9596 136.614 23.9694 136.719 23.9538C137.41 23.8517 137.877 23.7477 138.121 23.6418C138.13 23.6349 138.138 23.6311 138.143 23.6303C138.179 23.6143 138.211 23.6311 138.24 23.6808C138.274 23.7297 138.305 23.8517 138.334 24.0469C138.363 24.2421 138.337 24.3565 138.255 24.3901C138.051 24.5065 137.578 24.6195 136.834 24.7294ZM136.006 21.6412L136.097 22.2585L136.896 22.1405C136.785 21.5316 136.679 21.2345 136.579 21.2493C136.399 21.2758 136.255 21.324 136.147 21.3939C136.039 21.4638 135.992 21.5462 136.006 21.6412ZM140.433 24.0686C140.437 24.1003 140.435 24.1222 140.426 24.1343C140.411 24.1796 140.317 24.2151 140.143 24.2408C139.968 24.2666 139.795 24.2787 139.622 24.2772C139.455 24.275 139.369 24.258 139.364 24.2264L138.485 18.2749C138.473 18.1905 138.559 18.1346 138.744 18.1074C138.928 18.0801 139.083 18.0707 139.209 18.0792C139.333 18.0824 139.401 18.102 139.411 18.1382L139.929 20.6576L140.433 24.0686Z" fill="white"/>
<path d="M144.299 19.065C145.106 18.9425 145.685 18.9921 146.037 19.2138C146.389 19.4302 146.608 19.8258 146.695 20.4005C146.781 20.97 146.733 21.417 146.551 21.7414C146.924 21.9652 147.161 22.4013 147.259 23.0499C147.448 24.2943 146.828 25.025 145.399 25.2419C145.23 25.2675 144.673 25.309 143.727 25.3663L142.824 19.4185C143.359 19.2509 143.851 19.133 144.299 19.065ZM146.013 23.9592C146.101 23.8271 146.118 23.5819 146.064 23.2233C146.009 22.8647 145.937 22.6546 145.846 22.5927C145.756 22.5309 145.545 22.5252 145.213 22.5757C144.886 22.6253 144.678 22.6622 144.59 22.6863C144.507 22.7097 144.47 22.7477 144.478 22.8005L144.693 24.2163C144.702 24.2743 144.741 24.3033 144.811 24.3035C144.887 24.3028 145.085 24.2781 145.407 24.2292C145.729 24.1804 145.931 24.0904 146.013 23.9592ZM144.455 21.6874C144.913 21.6177 145.216 21.5151 145.363 21.3796C145.515 21.2432 145.562 20.9852 145.504 20.6056C145.471 20.3894 145.397 20.22 145.281 20.0973C145.17 19.9685 145.062 19.9121 144.956 19.9281C144.508 19.9962 144.241 20.0664 144.155 20.1388C144.126 20.1647 144.105 20.2004 144.09 20.2457L144.293 21.5824C144.303 21.6457 144.319 21.681 144.342 21.6884C144.38 21.6933 144.418 21.693 144.455 21.6874ZM149.675 24.5928C149.284 24.652 148.979 24.5744 148.757 24.3599C148.541 24.1445 148.387 23.731 148.294 23.1194L147.929 20.7149C147.916 20.6306 148.004 20.574 148.194 20.5451C148.389 20.5155 148.581 20.4999 148.77 20.4982C148.958 20.4966 149.055 20.5116 149.06 20.5432L149.433 22.9465C149.522 23.537 149.609 23.8259 149.694 23.8131C149.884 23.7843 150.122 23.6509 150.41 23.4131L149.954 20.4075C149.941 20.3232 150.029 20.2666 150.219 20.2377C150.414 20.2081 150.606 20.1925 150.795 20.1908C150.988 20.1884 151.088 20.203 151.092 20.2346L151.688 24.1577C151.693 24.1893 151.691 24.2112 151.682 24.2233C151.667 24.2687 151.533 24.3106 151.28 24.3491C151.032 24.3867 150.873 24.3677 150.802 24.2921L150.599 24.0722C150.267 24.376 149.959 24.5496 149.675 24.5928ZM153.727 23.9776C153.336 24.0369 153.025 23.9223 152.792 23.634C152.564 23.3395 152.39 22.7969 152.27 22.0059C152.15 21.215 152.182 20.6626 152.366 20.3487C152.555 20.0287 152.969 19.8203 153.607 19.7235L153.986 19.6658L153.698 17.7676C153.685 17.6832 153.771 17.627 153.956 17.599C154.14 17.571 154.295 17.5609 154.42 17.5689C154.545 17.5716 154.613 17.591 154.624 17.6271L155.141 20.1298L155.661 23.5545C155.666 23.5861 155.666 23.6076 155.663 23.619C155.643 23.6652 155.548 23.7011 155.38 23.7267C155.211 23.7523 155.064 23.7611 154.939 23.7532C154.819 23.7497 154.757 23.7295 154.751 23.6926L154.564 23.4702C154.426 23.5936 154.329 23.6812 154.272 23.733C154.114 23.8649 153.932 23.9464 153.727 23.9776ZM153.722 20.4828C153.527 20.5124 153.405 20.6145 153.356 20.7892C153.311 20.9578 153.318 21.2345 153.377 21.6195C153.434 21.9991 153.472 22.2496 153.491 22.3708C153.514 22.4913 153.541 22.6303 153.57 22.7876C153.624 23.0708 153.682 23.2075 153.746 23.1979C153.936 23.1691 154.174 23.0358 154.462 22.7979L154.102 20.4251L153.722 20.4828ZM157.582 23.3923C157.192 23.4515 156.881 23.337 156.648 23.0486C156.42 22.7542 156.246 22.2115 156.126 21.4205C156.006 20.6296 156.038 20.0772 156.222 19.7633C156.411 19.4433 156.824 19.2349 157.462 19.1381L157.842 19.0804L157.554 17.1822C157.541 17.0978 157.627 17.0416 157.812 17.0136C157.996 16.9856 158.151 16.9756 158.276 16.9835C158.401 16.9862 158.468 17.0056 158.479 17.0417L158.997 19.5444L159.517 22.9691C159.522 23.0008 159.522 23.0223 159.518 23.0336C159.499 23.0798 159.404 23.1157 159.235 23.1413C159.067 23.1669 158.92 23.1758 158.794 23.1678C158.675 23.1643 158.613 23.1441 158.607 23.1072L158.42 22.8848C158.282 23.0082 158.185 23.0958 158.128 23.1476C157.97 23.2795 157.788 23.3611 157.582 23.3923ZM157.578 19.8974C157.383 19.927 157.261 20.0291 157.212 20.2038C157.167 20.3724 157.174 20.6492 157.232 21.0341C157.29 21.4137 157.328 21.6642 157.347 21.7855C157.37 21.9059 157.397 22.0449 157.426 22.2023C157.48 22.4854 157.538 22.6222 157.602 22.6126C157.791 22.5837 158.03 22.4504 158.318 22.2125L157.957 19.8397L157.578 19.8974ZM159.651 18.911C159.64 18.8425 159.73 18.7938 159.92 18.765C160.115 18.7354 160.296 18.7213 160.464 18.7229C160.637 18.7236 160.728 18.7394 160.738 18.7703L161.853 21.3684L162.059 18.5697C162.067 18.4822 162.145 18.4272 162.293 18.4047C162.583 18.3607 162.778 18.3473 162.877 18.3645C162.977 18.3818 163.028 18.3983 163.031 18.4141L162.314 24.3569C162.306 24.4445 162.228 24.4995 162.081 24.5219C161.933 24.5443 161.811 24.5575 161.714 24.5613C161.505 24.5662 161.402 24.5441 161.405 24.495C161.402 24.4792 161.403 24.4656 161.407 24.4543L161.547 22.6609L159.665 18.9494L159.662 18.9336C159.656 18.9238 159.652 18.9163 159.651 18.911Z" fill="white"/>
</svg>
