<svg width="154" height="54" viewBox="0 0 154 54" fill="none" xmlns="http://www.w3.org/2000/svg">
<path d="M12.5815 28.7124L17.4858 35.9545L12.9317 44.2165L12.7125 40.2225L8.4385 44.4631L9.13557 38.9166L2.50832 36.7766L8.86154 33.9241L8.11567 29.4583L12.8007 32.7064L12.5815 28.7124Z" fill="#E8B558" stroke="#E8B558"/>
<path d="M20.5115 35.6076L25.4642 36.2938L24.8854 33.185L20.5115 35.6076Z" fill="#E8B558" stroke="#E8B558"/>
<path d="M148.423 36.3911H26.4231L22.9231 16.3911L36.9231 10.8911L34.4231 6.89111L45.9231 8.39111L42.9231 3.39111L53.4231 5.89111L50.4231 1.39111L139.923 10.8911L153.423 24.3911V28.8911L148.423 36.3911Z" fill="#E8B558" stroke="#E8B558"/>
<circle cx="36.9231" cy="43.3911" r="10" fill="#E8B558"/>
<circle cx="36.9231" cy="43.3911" r="6" fill="white"/>
<circle cx="37.0973" cy="43.3911" r="3" fill="#E8B558"/>
<circle cx="137.923" cy="43.3911" r="10" fill="#E8B558"/>
<circle cx="137.923" cy="43.3911" r="6" fill="white"/>
<circle cx="138.097" cy="43.3911" r="3" fill="#E8B558"/>
<path d="M152.117 27.9818C149.175 29.8493 145.354 32.1539 140.299 27.2296C141.345 31.6107 148.734 35.7142 152.117 27.9818Z" fill="#FFDBDB"/>
<circle cx="146.097" cy="23.3911" r="3" fill="white"/>
<circle cx="147.097" cy="23.3911" r="1" fill="#E8B558"/>
<path d="M33.5463 32.0324L32.3762 19.8685L29.8877 20.1079C29.5679 20.1253 29.3539 20.0588 29.2456 19.9085C29.1083 19.7342 29.0167 19.4081 28.9707 18.9303C28.8979 18.1738 29.0872 17.7738 29.5384 17.7304L36.785 17.0333C37.5547 16.9593 37.9594 17.128 37.999 17.5394C38.1126 18.7206 37.8509 19.3419 37.2139 19.4032L34.9822 19.5977L35.5502 23.6218L36.3495 31.7225C36.3738 31.9747 36.3831 32.1412 36.3775 32.2221C36.3423 32.4131 36.0924 32.5309 35.6279 32.5755C34.2874 32.7045 33.5936 32.5234 33.5463 32.0324ZM42.8609 22.3962C43.8777 21.5482 44.5587 21.1077 44.9038 21.0745C45.2621 21.04 45.587 21.0757 45.8785 21.1816C46.1833 21.2863 46.4084 21.3986 46.5539 21.5185L46.7503 21.6804C46.6329 22.549 46.5313 23.0946 46.4456 23.3171C46.3598 23.5397 46.2241 23.6599 46.0383 23.6778C45.8657 23.6944 45.6331 23.6431 45.3403 23.5239C45.0476 23.4047 44.7884 23.356 44.5627 23.3777C44.3371 23.3994 43.9057 23.6485 43.2684 24.1251L43.9731 31.4513C43.9808 31.5309 43.9726 31.5853 43.9486 31.6144C43.9058 31.7257 43.6653 31.8024 43.2274 31.8445C42.7894 31.8866 42.3748 31.893 41.9835 31.8637C41.6055 31.8331 41.4126 31.778 41.405 31.6983L40.4551 21.8239C40.4347 21.6116 40.7231 21.4767 41.3203 21.4192C41.9175 21.3617 42.2728 21.4347 42.3862 21.6381L42.39 21.678L42.8609 22.3962ZM53.9572 29.868C53.3271 30.5581 52.74 30.9294 52.1958 30.9817C51.6649 31.0328 51.2297 31.0345 50.8903 30.9868C50.5521 30.9523 50.2388 30.8284 49.9504 30.6151C49.6607 30.3884 49.4404 30.048 49.2895 29.5937C49.1387 29.1394 49.0262 28.5273 48.9522 27.7575C48.8487 26.6825 49.3021 25.8955 50.3123 25.3964L53.0883 24.386C52.9921 23.5246 52.8522 22.9754 52.6686 22.7386C52.4851 22.5017 52.1279 22.4089 51.597 22.4599C51.0661 22.511 50.6166 22.6413 50.2483 22.8509L49.5783 23.1966L49.5584 23.1985C49.4453 23.2764 49.334 23.2335 49.2245 23.0699C48.9371 22.5885 48.78 22.2085 48.7532 21.9298C48.7251 21.6378 48.7297 21.4766 48.767 21.4463C48.8162 21.4013 48.8402 21.3722 48.8389 21.359C49.4604 20.8572 50.2954 20.5558 51.3439 20.4549C52.4056 20.3528 53.2353 20.4136 53.8328 20.6375C54.4303 20.8613 54.8909 21.3327 55.2146 22.0516C55.5502 22.7561 55.7876 23.8316 55.9268 25.2783L56.3658 30.2591C56.3734 30.3388 56.3653 30.3931 56.3413 30.4222C56.2984 30.5335 56.0513 30.6108 55.6001 30.6543C54.7772 30.7334 54.3556 30.6668 54.3351 30.4545L53.9572 29.868ZM51.1658 27.5848C51.2577 28.5404 51.5849 29.0179 52.1475 29.0173C52.5324 28.9803 52.8047 28.8871 52.9645 28.7378C53.3118 28.4499 53.407 27.4897 53.2499 25.8573C52.5687 26.0166 52.0431 26.2613 51.673 26.5916C51.3017 26.9086 51.1326 27.2397 51.1658 27.5848ZM56.7962 20.1916C56.7796 20.0191 57.0102 19.9099 57.488 19.8639C57.9791 19.8167 58.4335 19.8064 58.8513 19.8332C59.2824 19.8587 59.5084 19.9106 59.5294 19.989L62.0174 27.2642L62.854 19.6692C62.8867 19.4517 63.0888 19.3251 63.4604 19.2894C63.8321 19.2536 64.1452 19.2369 64.3999 19.2392C65.0168 19.2468 65.3178 19.3116 65.3027 19.4336L65.2866 19.4753L63.7442 29.5493C63.7115 29.7668 63.4629 29.8979 62.9984 29.9426C62.5472 29.986 62.0596 29.9994 61.5356 29.9828C61.0248 29.965 60.7524 29.9175 60.7182 29.8404L56.8257 20.2893L56.8219 20.2495C56.806 20.2242 56.7975 20.2049 56.7962 20.1916ZM72.2303 29.0545C70.8102 29.1911 69.7844 28.9013 69.153 28.1851C68.5347 27.4677 68.1299 26.1136 67.9384 24.1228C67.8005 22.6894 67.8219 21.589 68.0026 20.8215C68.1819 20.0407 68.511 19.4933 68.9898 19.1794C69.4806 18.8509 70.2237 18.6387 71.2192 18.543C72.2146 18.4472 72.9778 18.5144 73.509 18.7446C74.0534 18.9736 74.4815 19.4548 74.7931 20.1883C75.1048 20.9218 75.3277 21.9854 75.4617 23.379C75.4694 23.4586 75.477 23.5382 75.4847 23.6179C75.4924 23.6975 75.3401 23.7858 75.028 23.8828C74.7291 23.9785 74.3607 24.0475 73.9227 24.0896L70.8569 24.3845C71.0328 25.9348 71.2305 26.8065 71.45 26.9997C71.5797 27.0944 71.7772 27.129 72.0427 27.1035C73.7813 26.9362 74.9608 26.7357 75.5813 26.5019C75.6066 26.486 75.6258 26.4775 75.6391 26.4762C75.7295 26.4407 75.8076 26.4868 75.8734 26.6144C75.9526 26.7407 76.0157 27.0494 76.063 27.5405C76.1102 28.0316 76.0302 28.3139 75.823 28.3874C75.2992 28.6521 74.1017 28.8744 72.2303 29.0545ZM70.5543 21.239L70.7036 22.7919L72.7144 22.5984C72.5132 21.064 72.2865 20.3089 72.0343 20.3332C71.5831 20.3766 71.2178 20.4787 70.9386 20.6395C70.6594 20.8003 70.5313 21.0001 70.5543 21.239ZM81.2997 27.8605C81.3074 27.9402 81.2992 27.9945 81.2752 28.0236C81.2323 28.1349 80.9919 28.2116 80.5539 28.2537C80.116 28.2959 79.6814 28.3042 79.2503 28.2787C78.8325 28.2519 78.6198 28.1987 78.6121 28.1191L77.172 13.1482C77.1515 12.9358 77.3736 12.8073 77.8381 12.7626C78.3026 12.7179 78.6907 12.7141 79.0023 12.7511C79.3127 12.7748 79.479 12.8325 79.5012 12.9241L80.4743 19.2801L81.2997 27.8605Z" fill="white"/>
<path d="M87.9273 17.15C89.9571 16.9464 91.3973 17.1436 92.248 17.7417C93.0972 18.3265 93.5944 19.342 93.7395 20.788C93.8832 22.2208 93.7065 23.3307 93.2092 24.1176C94.1142 24.7236 94.6486 25.8425 94.8123 27.4743C95.1264 30.6053 93.4858 32.3511 89.8905 32.7118C89.466 32.7544 88.0689 32.7873 85.6994 32.8106L84.1981 17.8458C85.5566 17.4951 86.7996 17.2632 87.9273 17.15ZM91.587 29.5868C91.8231 29.2683 91.8959 28.658 91.8054 27.7559C91.7149 26.8538 91.5608 26.3198 91.3432 26.154C91.1255 25.9883 90.5988 25.9473 89.763 26.0312C88.9405 26.1137 88.4178 26.1795 88.1949 26.2287C87.9853 26.2765 87.8871 26.3667 87.9004 26.4994L88.2578 30.0615C88.2724 30.2075 88.3673 30.285 88.5424 30.2943C88.7308 30.3022 89.2297 30.2655 90.0389 30.1844C90.8482 30.1032 91.3642 29.904 91.587 29.5868ZM87.9831 23.7173C89.1373 23.6015 89.9061 23.3836 90.2894 23.0638C90.686 22.7426 90.8364 22.1044 90.7406 21.1492C90.686 20.6053 90.522 20.1728 90.2486 19.8518C89.9871 19.5162 89.7237 19.3618 89.4584 19.3884C88.3307 19.5015 87.6548 19.643 87.4306 19.8129C87.3564 19.874 87.298 19.9602 87.2556 20.0717L87.593 23.4348C87.609 23.594 87.6448 23.6842 87.7005 23.7054C87.7961 23.7226 87.8903 23.7266 87.9831 23.7173ZM100.648 31.6326C99.6662 31.7311 98.9125 31.4985 98.387 30.9348C97.8747 30.3698 97.5413 29.3178 97.3869 27.7789L96.78 21.7292C96.7587 21.517 96.9869 21.3869 97.4645 21.339C97.9554 21.2897 98.4363 21.275 98.9073 21.2947C99.3783 21.3145 99.6178 21.3641 99.6258 21.4437L100.253 27.4914C100.402 28.9773 100.582 29.7095 100.795 29.6883C101.272 29.6403 101.885 29.3377 102.633 28.7802L101.874 21.2182C101.853 21.0059 102.081 20.8758 102.559 20.8279C103.05 20.7786 103.531 20.7639 104.002 20.7836C104.486 20.8021 104.732 20.8511 104.74 20.9307L105.73 30.8011C105.738 30.8807 105.73 30.9351 105.706 30.9643C105.664 31.0758 105.324 31.1634 104.688 31.2273C104.064 31.2899 103.669 31.2223 103.501 31.0247L103.022 30.4497C102.156 31.1664 101.364 31.5607 100.648 31.6326ZM110.843 30.6098C109.861 30.7083 109.098 30.3829 108.554 29.6334C108.022 28.8694 107.656 27.4924 107.456 25.5024C107.256 23.5124 107.407 22.1372 107.907 21.3768C108.418 20.6019 109.477 20.1339 111.082 19.9728L112.037 19.877L111.558 15.101C111.537 14.8887 111.759 14.7593 112.223 14.7127C112.687 14.6661 113.075 14.6607 113.387 14.6964C113.698 14.7189 113.864 14.7758 113.887 14.8674L114.862 21.1816L115.726 29.7983C115.734 29.8779 115.733 29.9317 115.722 29.9595C115.667 30.0723 115.426 30.15 115.002 30.1926C114.577 30.2352 114.209 30.2386 113.897 30.2029C113.6 30.1791 113.447 30.1208 113.438 30.0279L112.998 29.4489C112.638 29.7396 112.384 29.946 112.236 30.0681C111.825 30.3774 111.36 30.5579 110.843 30.6098ZM111.274 21.8832C110.783 21.9325 110.465 22.172 110.321 22.6019C110.188 23.0172 110.171 23.7091 110.268 24.6776C110.364 25.6328 110.427 26.263 110.457 26.5681C110.501 26.8719 110.55 27.2222 110.603 27.6188C110.701 28.3326 110.83 28.6815 110.989 28.6655C111.467 28.6176 112.08 28.3149 112.828 27.7574L112.229 21.7874L111.274 21.8832ZM120.544 29.6366C119.562 29.7351 118.799 29.4096 118.255 28.6602C117.723 27.8962 117.357 26.5192 117.157 24.5292C116.958 22.5391 117.108 21.164 117.608 20.4036C118.12 19.6286 119.178 19.1606 120.784 18.9996L121.739 18.9037L121.26 14.1277C121.238 13.9155 121.46 13.786 121.924 13.7394C122.389 13.6929 122.777 13.6874 123.088 13.7232C123.399 13.7456 123.565 13.8026 123.588 13.8941L124.563 20.2083L125.428 28.8251C125.436 28.9047 125.434 28.9584 125.424 28.9863C125.368 29.0991 125.128 29.1768 124.703 29.2193C124.279 29.2619 123.911 29.2654 123.599 29.2297C123.302 29.2059 123.148 29.1475 123.139 29.0547L122.699 28.4757C122.34 28.7664 122.086 28.9727 121.937 29.0949C121.526 29.4041 121.062 29.5847 120.544 29.6366ZM120.975 20.91C120.484 20.9592 120.167 21.1988 120.022 21.6287C119.89 22.044 119.872 22.7359 119.969 23.7044C120.065 24.6596 120.128 25.2897 120.159 25.5949C120.203 25.8987 120.251 26.2489 120.304 26.6456C120.403 27.3593 120.532 27.7082 120.691 27.6922C121.168 27.6443 121.781 27.3416 122.529 26.7842L121.93 20.8142L120.975 20.91ZM126.276 18.7098C126.259 18.5374 126.489 18.4272 126.967 18.3793C127.458 18.33 127.912 18.3179 128.33 18.343C128.761 18.3668 128.987 18.4178 129.009 18.496L131.462 25.1242L132.332 18.1626C132.364 17.945 132.565 17.8176 132.937 17.7804C133.666 17.7072 134.155 17.6984 134.401 17.754C134.648 17.8097 134.774 17.8574 134.778 17.8972L132.237 32.6444C132.205 32.862 132.004 32.9895 131.632 33.0267C131.261 33.064 130.954 33.0813 130.713 33.0788C130.189 33.0643 129.934 32.9961 129.948 32.874C129.944 32.8342 129.948 32.8004 129.958 32.7725L130.536 28.3126L126.306 18.8073L126.302 18.7675C126.286 18.7423 126.278 18.7231 126.276 18.7098Z" fill="white"/>
</svg>
